# xmcd
#
# Track frame offsets:
#	150
#	11957
#	22770
#	32567
#	43170
#	55492
#	65965
#	75395
#	85870
#	98470
#
# Disc length: 1440 seconds
# Revision: 1
# Processed by: cddbd v1.5.2PL0 Copyright (c) Steve Scherf et al.
# Submitted via: dBpowerAMP V12.0
#
DISCID=75059e0a
DTITLE=Charlie Rich - All American Country
DYEAR=2003
DGENRE=Country
TTITLE0=Big Boss Man
TTITLE1=There Won't Be Anymore
TTITLE2=It's All Over Now
TTITLE3=Tomorrow Night
TTITLE4=My Mountain Dew
TTITLE5=Turn Around and Face Me
TTITLE6=Tragedy
TTITLE7=Nice 'N' Easy
TTITLE8=Are You Still My Baby
TTITLE9=Now Everybody Knows
EXTD=
EXTT0=
EXTT1=
EXTT2=
EXTT3=
EXTT4=
EXTT5=
EXTT6=
EXTT7=
EXTT8=
EXTT9=
PLAYORDER=
